<?xml version="1.0" encoding="UTF-8"?>
<svg width="901px" height="902px" viewBox="0 0 901 902" version="1.1" xmlns="http://www.w3.org/2000/svg" xmlns:xlink="http://www.w3.org/1999/xlink">
    <!-- Generator: Sketch 52.6 (67491) - http://www.bohemiancoding.com/sketch -->
    <title>Group 2</title>
    <desc>Created with Sketch.</desc>
    <g id="Page-1" stroke="none" stroke-width="1" fill="none" fill-rule="evenodd">
        <g id="Group-2">
            <rect id="Rectangle" fill="#F7F7F7" x="0" y="0" width="901" height="902"></rect>
            <g id="mc">
                <g id="578980">
                    <g id="Group" transform="translate(450.500000, 451.000000) scale(-1, 1) rotate(-180.000000) translate(-450.500000, -451.000000) translate(0.000000, 0.500000)">
                        <g id="Path">
                            <g id="Group">
                                <path d="M901,450.5 C901,201.699937 699.300063,0 450.5,0 C201.699937,0 0,201.699937 0,450.5 C0,699.300063 201.699937,901 450.5,901 C699.300063,901 901,699.300063 901,450.5" id="Path" fill="#3B88C3"></path>
                                <path d="M176.4575,577.3125 C179.1025,593.185 196.2975,611.26125 219.67875,611.26125 C241.72375,611.26125 258.9175,595.38875 263.7675,579.5175 L315.80625,404.8975 L316.6875,404.8975 L368.72625,579.5175 C373.56125,595.39 390.75625,611.26125 412.815,611.26125 C436.1825,611.26125 453.37625,593.185 456.03625,577.3125 L497.03875,331.24 C497.48,328.60875 497.48,325.94875 497.48,323.75875 C497.48,304.345 483.37125,292 465.73625,292 C443.23625,292 434.43375,302.14 431.3475,322.8625 L405.32125,502.3475 L404.425,502.3475 L351.51875,317.5725 C348.4325,306.99125 340.07,292.00125 316.2475,292.00125 C292.44,292.00125 284.04875,306.99125 280.9625,317.5725 L228.04125,502.3475 L227.17375,502.3475 L201.1475,322.8625 C198.06125,302.14125 189.24375,292 166.75875,292 C149.12375,292 135,304.345 135,323.75875 C135,325.94875 135,328.60875 135.455,331.24 L176.4575,577.3125 Z" id="Path" fill="#FFFFFF"></path>
                            </g>
                        </g>
                    </g>
                </g>
                <g id="letter-c" transform="translate(522.000000, 287.000000)" fill="#FFFFFF">
                    <g id="Group" transform="translate(124.000000, 160.500000) scale(-1, 1) rotate(-180.000000) translate(-124.000000, -160.500000) translate(0.000000, 0.000000)">
                        <g id="Path">
                            <g id="Group">
                                <path d="M149.760115,320.123908 C181.548166,320.123908 243.355867,309.687042 243.355867,271.404147 C243.355867,255.748231 232.47396,242.267227 216.369528,242.267227 C198.523842,242.267227 186.336304,257.487914 149.760115,257.487914 C95.7874362,257.487914 67.9162787,211.81229 67.9162787,158.7575 C67.9162787,107.007164 96.2082494,62.635994 149.760115,62.635994 C186.336304,62.635994 201.121531,80.886023 218.980791,80.886023 C238.581304,80.886023 247.721958,61.330307 247.721958,51.32867 C247.721958,9.566408 181.982554,0 149.758881,0 C61.3856537,0 0,70.028723 0,160.060721 C0.00123405612,250.530414 60.9512659,320.123908 149.760115,320.123908" id="Path"></path>
                            </g>
                        </g>
                    </g>
                </g>
            </g>
        </g>
    </g>
</svg>