<?xml version="1.0" encoding="UTF-8"?>
<svg width="512px" height="512px" viewBox="0 0 512 512" version="1.1" xmlns="http://www.w3.org/2000/svg" xmlns:xlink="http://www.w3.org/1999/xlink">
    <!-- Generator: Sketch 52.6 (67491) - http://www.bohemiancoding.com/sketch -->
    <title>seo-logo</title>
    <desc>Created with Sketch.</desc>
    <g id="Page-1" stroke="none" stroke-width="1" fill="none" fill-rule="evenodd">
        <g id="seo-logo">
            <circle id="Oval" fill="#006775" cx="256" cy="256" r="256"></circle>
            <path d="M510.098,288.978 L416.238,195.118 C393.619,169.539 338.656,137.619 281.156,193.849 L253.674,167.425 L185.394,167.425 L185.394,202.094 L163.197,178.841 L119.227,171.654 L97.876,203.152 L149.245,257.269 L155.587,307.159 L118.17,268.896 L86.672,312.232 L285.172,510.732 C402.074,497.414 495.088,405.668 510.096,289.19 L510.096,288.978 L510.098,288.978 Z" id="Path" fill="#055661"></path>
            <g id="Group" transform="translate(262.000000, 161.000000)" fill="#00CC96">
                <path d="M86.168,0.083 L86.168,0.294 C40.507,0.294 0.976,37.077 0.976,85.486 C0.976,121.424 23.596,153.556 57.419,165.605 C66.721,168.776 76.234,170.467 86.169,170.467 C131.83,170.467 171.361,133.684 171.361,85.275 C171.361,37.289 132.253,0.083 86.168,0.083 Z M149.798,43.42 C156.562,53.99 161.002,66.462 161.847,79.78 L146.627,79.78 C145.993,68.153 142.822,57.372 138.171,47.436 L137.96,47.436 C141.977,46.167 145.993,44.9 149.798,43.42 Z M143.668,35.175 C140.074,36.444 136.481,37.5 132.886,38.346 C125.275,26.719 114.917,17.206 102.868,10.442 C118.934,14.247 133.309,22.914 143.668,35.175 Z M110.267,90.138 L137.749,90.138 C137.115,99.439 134.789,108.317 131.196,116.562 C123.797,114.66 116.187,113.391 108.365,112.334 C109.422,105.148 110.056,97.749 110.267,90.138 Z M107.73,53.566 C115.129,52.72 122.316,51.452 129.292,49.761 C133.943,58.851 136.903,68.998 137.748,79.779 L110.266,79.779 C110.056,70.69 109.21,62.022 107.73,53.566 Z M123.796,40.46 C117.877,41.729 111.958,42.574 105.827,43.208 C103.713,34.118 101.176,25.451 97.794,17.418 C108.154,22.914 117.032,30.947 123.796,40.46 Z M97.583,54.201 C98.852,62.445 99.697,70.901 99.908,79.569 L73.484,79.569 C73.695,70.902 74.541,62.445 75.809,54.413 C78.98,54.624 82.151,54.624 85.322,54.624 C89.338,54.624 93.355,54.412 97.371,54.201 L97.371,54.202 L97.583,54.201 Z M49.386,51.453 C54.883,52.51 60.379,53.355 66.086,53.99 C64.817,62.234 63.972,70.901 63.549,79.992 L41.776,79.992 C42.41,69.845 45.158,60.332 49.387,51.665 L49.386,51.453 Z M63.549,90.35 C63.76,97.749 64.395,105.148 65.451,112.336 C59.32,112.97 53.402,113.816 47.694,115.084 C44.523,107.473 42.409,99.018 41.775,90.351 L63.549,90.35 Z M66.931,122.481 C68.622,131.359 71.159,139.816 74.118,147.637 C65.451,141.506 57.841,133.473 52.345,124.383 C57.207,123.538 62.069,122.904 66.931,122.481 Z M67.988,43.842 C63.548,43.419 59.11,42.785 54.882,42.151 C60.167,34.541 66.72,27.776 74.33,22.491 C71.793,29.255 69.679,36.443 67.988,43.842 Z M77.714,44.053 C77.73,44.053 77.745,44.054 77.761,44.054 C79.875,33.986 83.023,24.545 86.592,15.938 C90.185,24.605 93.356,34.118 95.47,44.053 C92.087,44.264 88.705,44.264 85.323,44.264 C82.802,44.264 80.281,44.056 77.76,44.054 C77.745,44.125 77.728,44.194 77.713,44.265 L77.713,44.053 C77.714,44.053 77.713,44.053 77.714,44.053 Z M74.119,9.597 C75.176,9.808 76.444,10.02 77.501,10.231 C64.395,17.417 53.402,27.776 45.58,40.249 C39.449,38.98 33.531,37.289 28.034,35.387 C39.662,21.857 55.727,12.345 74.119,9.597 Z M21.904,43.631 C27.823,45.956 34.164,47.859 40.719,49.55 C36.491,58.852 33.743,68.998 33.108,79.78 L9.855,79.78 C10.7,66.462 15.139,54.2 21.904,43.631 Z M9.855,90.138 L33.108,90.138 C33.742,99.44 35.856,108.529 39.239,116.773 L39.027,116.984 C32.263,118.675 25.921,120.789 19.79,123.115 C14.083,113.392 10.489,102.188 9.855,90.138 Z M73.908,160.532 C54.248,157.362 36.913,146.792 25.287,131.571 C30.995,129.457 37.125,127.766 43.467,126.286 C51.289,140.45 63.127,152.076 77.29,159.898 C76.233,160.109 74.964,160.321 73.908,160.532 Z M86.38,153.557 C82.178,143.682 79.022,132.969 76.7,121.423 C76.686,121.424 76.67,121.424 76.656,121.426 L76.655,121.426 L76.656,121.426 L76.656,121.214 C76.67,121.284 76.686,121.353 76.7,121.423 C79.435,121.215 82.377,121.215 85.111,121.215 C88.705,121.215 92.51,121.426 96.104,121.426 C93.779,132.84 90.608,143.621 86.38,153.557 Z M85.112,110.855 C81.729,110.855 78.347,110.855 74.965,111.066 C74.12,104.301 73.485,97.114 73.274,89.927 L73.274,89.926 L73.274,89.927 L99.487,89.927 C99.276,97.325 98.853,104.302 97.796,111.278 C93.568,111.066 89.339,110.855 85.112,110.855 Z M106.885,122.693 C113.649,123.327 120.203,124.595 126.333,125.864 C119.358,136.857 109.422,146.158 98.007,152.288 C101.812,142.986 104.771,133.051 106.885,122.693 Z M103.081,159.475 C116.398,152.076 127.602,141.084 135.213,127.978 C139.018,129.035 142.824,130.303 146.417,131.571 C135.847,145.311 120.626,155.459 103.081,159.475 Z M139.863,118.888 C143.668,110.01 146.205,100.286 146.839,90.138 L162.059,90.138 C161.213,102.186 157.619,113.391 151.912,123.115 C147.896,121.636 143.88,120.156 139.863,118.888 Z" id="Shape" fill-rule="nonzero"></path>
                <path d="M90.397,48.914 C111.57,48.914 128.873,66.217 128.873,87.39 C128.873,108.563 111.57,125.866 90.397,125.866 C69.224,125.866 51.921,108.563 51.921,87.39 C51.921,66.217 69.223,48.914 90.397,48.914 Z" id="Path"></path>
            </g>
            <g id="Group" transform="translate(301.000000, 197.000000)" fill="#F7F7F8">
                <path d="M138.068,173.366 L97.058,102.126 C95.79,100.223 93.253,99.589 91.35,100.646 L89.659,101.703 L83.317,90.921 L83.317,90.922 L83.104,90.922 C92.617,83.312 99.381,72.531 101.495,59.636 C106.146,32.155 87.543,5.942 59.85,1.291 C32.369,-3.36 6.156,15.243 1.505,42.936 C-3.146,70.417 15.457,96.63 43.15,101.281 C52.452,102.761 61.965,101.703 70.209,98.321 L76.551,109.103 L74.86,110.16 C72.957,111.428 72.323,113.965 73.38,115.868 L114.391,187.108 C115.659,189.011 118.196,189.645 120.099,188.588 L136.588,179.075 C138.491,177.806 139.125,175.268 138.068,173.366 Z M52.25,87.25 C32.023,87.25 15.625,70.852 15.625,50.625 C15.625,30.398 32.023,14 52.25,14 C72.477,14 88.875,30.398 88.875,50.625 C88.875,70.852 72.477,87.25 52.25,87.25 Z" id="Shape" fill-rule="nonzero"></path>
                <path d="M28.142,44.837 C27.931,46.317 26.662,47.162 25.394,46.951 C24.337,46.74 23.492,45.682 23.492,44.626 C23.492,44.203 23.703,43.78 23.703,43.146 C26.24,27.715 41.038,17.144 56.469,19.682 C56.892,19.682 57.315,19.893 57.738,19.893 L57.949,19.893 C59.429,20.104 60.274,21.373 60.063,22.853 C59.852,24.122 58.583,25.178 57.103,24.967 C56.68,24.756 56.046,24.756 55.623,24.756 C42.939,22.642 30.679,31.309 28.564,43.993 C28.564,44.204 28.564,44.416 28.353,44.839 L28.141,44.839 L28.142,44.837 Z" id="Path"></path>
            </g>
            <path d="M392.562,297.433 L377.553,306.1 L375.862,307.157 C373.96,308.214 373.325,310.751 374.382,312.865 L415.393,384.105 C416.45,386.007 418.987,386.642 421.101,385.585 L437.59,376.072 C439.492,375.015 440.127,372.478 439.07,370.364 L398.06,299.124 C397.003,297.222 394.678,296.587 392.775,297.433 L392.562,297.433 Z" id="Path" fill="#E84F4F"></path>
            <path d="M390.447,298.702 L392.138,297.645 C394.04,296.588 396.578,297.222 397.846,299.125 L438.857,370.365 C439.914,372.267 439.28,374.805 437.377,376.073 L429.133,380.935 L384.529,302.085 L390.447,298.702 Z" id="Path" fill="#C94545"></path>
            <path d="M168.905,214.778 L168.905,208.436 C168.905,195.752 167.636,186.663 165.1,181.377 C162.563,176.092 157.701,171.653 150.091,168.059 C142.48,164.677 133.391,162.774 122.398,162.774 C112.463,162.774 104.218,164.254 97.03,167.636 C90.054,170.807 84.981,175.247 81.81,180.954 C78.639,186.661 77.159,195.54 77.159,207.802 C77.159,216.258 78.216,223.234 80.541,228.73 C82.655,234.226 85.614,238.454 88.785,241.625 C92.167,244.796 98.932,249.658 109.291,256.634 C119.649,263.398 125.991,268.261 128.739,271.22 C131.276,274.18 132.544,280.31 132.544,289.611 C132.544,293.839 131.91,297.01 130.43,299.335 C129.161,301.449 127.048,302.506 124.299,302.506 C121.551,302.506 119.648,301.66 118.591,299.969 C117.534,298.278 116.9,294.473 116.9,288.342 L116.9,268.895 L78.216,268.895 L78.216,279.464 C78.216,291.513 79.485,300.815 81.81,307.157 C84.347,313.71 89.421,318.995 97.241,323.223 C105.061,327.451 114.576,329.565 125.78,329.565 C135.927,329.565 144.806,327.663 152.415,324.069 C160.026,320.475 165.099,315.825 167.846,310.54 C170.594,305.044 171.862,296.8 171.862,285.384 C171.862,269.74 169.537,258.325 164.675,251.349 C159.813,244.373 148.186,235.283 129.795,224.29 C123.453,220.485 119.437,217.103 117.957,214.566 C116.477,211.818 115.843,207.802 115.843,202.517 C115.843,198.289 116.477,195.33 117.745,193.215 C119.013,191.1 120.916,190.044 123.453,190.044 C125.778,190.044 127.469,190.89 128.315,192.369 C129.372,193.849 129.795,197.442 129.795,202.939 L129.795,214.777 L168.481,214.777 L168.905,214.777 L168.905,214.778 Z M185.605,166.157 L185.605,326.183 L257.902,326.183 L257.902,294.262 L227.25,294.262 L227.25,258.958 L253.252,258.958 L253.252,228.517 L227.25,228.517 L227.25,197.865 L254.943,197.865 L254.943,165.944 L185.605,165.944 L185.605,166.157 Z" id="Shape" fill="#00CC96" fill-rule="nonzero"></path>
        </g>
    </g>
</svg>